<?xml version="1.0" encoding="utf-8"?>
<!-- Generator: Adobe Illustrator 24.1.1, SVG Export Plug-In . SVG Version: 6.00 Build 0)  -->
<svg version="1.1" id="Layer_1" xmlns="http://www.w3.org/2000/svg" xmlns:xlink="http://www.w3.org/1999/xlink" x="0px" y="0px"
	 viewBox="0 0 15 18" style="enable-background:new 0 0 15 18;" xml:space="preserve">
<path d="M12,9.6c0-2.3,1.8-3.4,1.9-3.4c-1-1.5-2.7-1.8-3.2-1.8C9.3,4.2,8,5.2,7.3,5.2c-0.7,0-1.8-0.8-2.9-0.8
	c-1.5,0-2.9,0.9-3.7,2.3c-1.6,2.8-0.4,6.8,1.1,9.1C2.6,16.8,3.5,18,4.7,18c1.1,0,1.5-0.7,2.9-0.7S9.3,18,10.5,18
	c1.2,0,2-1.1,2.7-2.2c0.9-1.3,1.2-2.5,1.2-2.6C14.4,13.2,12,12.3,12,9.6z"/>
<path d="M9.8,2.9c0.6-0.8,1-1.8,0.9-2.9c-0.9,0-2,0.6-2.6,1.4C7.5,2,7,3.1,7.2,4.2C8.2,4.2,9.2,3.6,9.8,2.9z"/>
</svg>
