<svg xmlns="http://www.w3.org/2000/svg" viewBox="0 0 85 85" style="display: none">
									<defs>
										<g id="pause-icon">
											<path d="M42.5,84.5c-23.16,0-42-18.84-42-42c0-23.16,18.84-42,42-42c23.16,0,42,18.84,42,42C84.5,65.66,65.66,84.5,42.5,84.5z M42.5,4.5c-20.95,0-38,17.05-38,38s17.05,38,38,38s38-17.05,38-38S63.45,4.5,42.5,4.5z"/>
											<path d="M50,28.25c1.1,0,2,0.9,2,2v24c0,1.1-0.9,2-2,2s-2-0.9-2-2v-24C48,29.15,48.9,28.25,50,28.25z"/>
											<path d="M35,28.25c1.1,0,2,0.9,2,2v24c0,1.1-0.9,2-2,2s-2-0.9-2-2v-24C33,29.15,33.9,28.25,35,28.25z"/>
										</g>
										<g id="play-icon">
											<path d="M42.5,84.5c-23.16,0-42-18.84-42-42c0-23.16,18.84-42,42-42c23.16,0,42,18.84,42,42C84.5,65.66,65.66,84.5,42.5,84.5z M42.5,4.5c-20.95,0-38,17.05-38,38s17.05,38,38,38s38-17.05,38-38S63.45,4.5,42.5,4.5z"/>
											<path d="M55.73,41.55c0.3,0.45,0.3,1.03,0,1.48c-0.11,0.23-0.29,0.41-0.52,0.52L35.27,56.1c-0.23,0.12-0.48,0.17-0.74,0.15 c-0.8-0.03-1.45-0.68-1.48-1.48v-25c-0.01-0.26,0.07-0.52,0.22-0.74c0.11-0.23,0.29-0.41,0.52-0.52c0.22-0.15,0.48-0.23,0.74-0.22 c0.25,0.01,0.5,0.06,0.74,0.15L55.21,41c0.21,0.16,0.39,0.36,0.52,0.59"/>
										</g>
									</defs>
								</svg>